<svg width="1600" height="1000" viewBox="0 0 1600 1000" xmlns="http://www.w3.org/2000/svg">
  <defs>
    <radialGradient id="coreGlow" cx="50%" cy="42%" r="55%">
      <stop offset="0%" stop-color="#3A7FFF" stop-opacity="0.55"/>
      <stop offset="35%" stop-color="#0057FF" stop-opacity="0.28"/>
      <stop offset="70%" stop-color="#0A0A0F" stop-opacity="0.05"/>
      <stop offset="100%" stop-color="#0A0A0F" stop-opacity="0"/>
    </radialGradient>
    <radialGradient id="goldGlow" cx="50%" cy="40%" r="30%">
      <stop offset="0%" stop-color="#FFD700" stop-opacity="0.35"/>
      <stop offset="100%" stop-color="#FFD700" stop-opacity="0"/>
    </radialGradient>
    <linearGradient id="silhouetteFade" x1="0%" y1="0%" x2="0%" y2="100%">
      <stop offset="0%" stop-color="#15151F"/>
      <stop offset="100%" stop-color="#0A0A0F"/>
    </linearGradient>
    <linearGradient id="bgFade" x1="0%" y1="0%" x2="0%" y2="100%">
      <stop offset="0%" stop-color="#0A0A0F"/>
      <stop offset="50%" stop-color="#0D0D16"/>
      <stop offset="100%" stop-color="#0A0A0F"/>
    </linearGradient>
    <filter id="softBlur" x="-50%" y="-50%" width="200%" height="200%">
      <feGaussianBlur stdDeviation="8"/>
    </filter>
    <filter id="bigBlur" x="-50%" y="-50%" width="200%" height="200%">
      <feGaussianBlur stdDeviation="22"/>
    </filter>
  </defs>

  <rect width="1600" height="1000" fill="url(#bgFade)"/>

  <g opacity="0.5">
    <line x1="0" y1="100" x2="1600" y2="100" stroke="#FFFFFF" stroke-opacity="0.02" stroke-width="1"/>
    <line x1="0" y1="200" x2="1600" y2="200" stroke="#FFFFFF" stroke-opacity="0.02" stroke-width="1"/>
    <line x1="0" y1="300" x2="1600" y2="300" stroke="#FFFFFF" stroke-opacity="0.02" stroke-width="1"/>
    <line x1="0" y1="400" x2="1600" y2="400" stroke="#FFFFFF" stroke-opacity="0.02" stroke-width="1"/>
    <line x1="0" y1="500" x2="1600" y2="500" stroke="#FFFFFF" stroke-opacity="0.02" stroke-width="1"/>
    <line x1="0" y1="600" x2="1600" y2="600" stroke="#FFFFFF" stroke-opacity="0.02" stroke-width="1"/>
    <line x1="0" y1="700" x2="1600" y2="700" stroke="#FFFFFF" stroke-opacity="0.02" stroke-width="1"/>
    <line x1="0" y1="800" x2="1600" y2="800" stroke="#FFFFFF" stroke-opacity="0.02" stroke-width="1"/>
    <line x1="0" y1="900" x2="1600" y2="900" stroke="#FFFFFF" stroke-opacity="0.02" stroke-width="1"/>
    <line x1="200" y1="0" x2="200" y2="1000" stroke="#FFFFFF" stroke-opacity="0.02" stroke-width="1"/>
    <line x1="400" y1="0" x2="400" y2="1000" stroke="#FFFFFF" stroke-opacity="0.02" stroke-width="1"/>
    <line x1="600" y1="0" x2="600" y2="1000" stroke="#FFFFFF" stroke-opacity="0.02" stroke-width="1"/>
    <line x1="800" y1="0" x2="800" y2="1000" stroke="#FFFFFF" stroke-opacity="0.02" stroke-width="1"/>
    <line x1="1000" y1="0" x2="1000" y2="1000" stroke="#FFFFFF" stroke-opacity="0.02" stroke-width="1"/>
    <line x1="1200" y1="0" x2="1200" y2="1000" stroke="#FFFFFF" stroke-opacity="0.02" stroke-width="1"/>
    <line x1="1400" y1="0" x2="1400" y2="1000" stroke="#FFFFFF" stroke-opacity="0.02" stroke-width="1"/>
  </g>

  <circle cx="800" cy="420" r="420" fill="url(#coreGlow)"/>
  <circle cx="800" cy="400" r="160" fill="url(#goldGlow)"/>

  <g stroke="#3A7FFF" stroke-opacity="0.18" fill="none" stroke-width="1.5">
    <line x1="800" y1="420" x2="120" y2="60"/>
    <line x1="800" y1="420" x2="380" y2="20"/>
    <line x1="800" y1="420" x2="650" y2="0"/>
    <line x1="800" y1="420" x2="950" y2="0"/>
    <line x1="800" y1="420" x2="1220" y2="20"/>
    <line x1="800" y1="420" x2="1480" y2="60"/>
    <line x1="800" y1="420" x2="80" y2="500"/>
    <line x1="800" y1="420" x2="1520" y2="500"/>
  </g>

  <g filter="url(#bigBlur)" opacity="0.3">
    <ellipse cx="800" cy="950" rx="700" ry="80" fill="#0057FF"/>
  </g>

  <g fill="url(#silhouetteFade)">
    <path d="M 800 120
             C 760 120 730 150 730 195
             C 730 225 745 250 765 265
             L 720 290
             C 650 310 600 360 590 430
             L 570 620
             L 610 620
             L 625 460
             C 628 440 645 425 660 425
             L 660 1000
             L 760 1000
             L 760 560
             L 770 560
             L 770 1000
             L 830 1000
             L 830 560
             L 840 560
             L 840 1000
             L 940 1000
             L 940 425
             C 955 425 972 440 975 460
             L 990 620
             L 1030 620
             L 1010 430
             C 1000 360 950 310 880 290
             L 835 265
             C 855 250 870 225 870 195
             C 870 150 840 120 800 120 Z"
          opacity="0.97"/>
  </g>

  <g fill="url(#silhouetteFade)" opacity="0.82">
    <path d="M 430 200
             C 405 200 385 220 385 248
             C 385 268 395 286 410 296
             L 378 312
             C 330 326 296 362 288 410
             L 274 540
             L 302 540
             L 313 430
             C 315 416 327 405 338 405
             L 338 1000
             L 405 1000
             L 405 690
             L 412 690
             L 412 1000
             L 448 1000
             L 448 690
             L 455 690
             L 455 1000
             L 522 1000
             L 522 405
             C 533 405 545 416 547 430
             L 558 540
             L 586 540
             L 572 410
             C 564 362 530 326 482 312
             L 450 296
             C 465 286 475 268 475 248
             C 475 220 455 200 430 200 Z"/>
  </g>

  <g fill="url(#silhouetteFade)" opacity="0.82">
    <path d="M 1170 200
             C 1145 200 1125 220 1125 248
             C 1125 268 1135 286 1150 296
             L 1118 312
             C 1070 326 1036 362 1028 410
             L 1014 540
             L 1042 540
             L 1053 430
             C 1055 416 1067 405 1078 405
             L 1078 1000
             L 1145 1000
             L 1145 690
             L 1152 690
             L 1152 1000
             L 1188 1000
             L 1188 690
             L 1195 690
             L 1195 1000
             L 1262 1000
             L 1262 405
             C 1273 405 1285 416 1287 430
             L 1298 540
             L 1326 540
             L 1312 410
             C 1304 362 1270 326 1222 312
             L 1190 296
             C 1205 286 1215 268 1215 248
             C 1215 220 1195 200 1170 200 Z"/>
  </g>

  <g fill="url(#silhouetteFade)" opacity="0.65">
    <path d="M 150 280
             C 130 280 114 296 114 318
             C 114 334 122 348 134 356
             L 108 370
             C 70 382 44 412 38 450
             L 28 555
             L 50 555
             L 59 465
             C 61 454 70 446 79 446
             L 79 1000
             L 134 1000
             L 134 730
             L 139 730
             L 139 1000
             L 168 1000
             L 168 730
             L 173 730
             L 173 1000
             L 228 1000
             L 228 446
             C 237 446 246 454 248 465
             L 257 555
             L 279 555
             L 269 450
             C 263 412 237 382 199 370
             L 173 356
             C 185 348 193 334 193 318
             C 193 296 177 280 150 280 Z"/>
  </g>

  <g fill="url(#silhouetteFade)" opacity="0.65">
    <path d="M 1450 280
             C 1430 280 1414 296 1414 318
             C 1414 334 1422 348 1434 356
             L 1408 370
             C 1370 382 1344 412 1338 450
             L 1328 555
             L 1350 555
             L 1359 465
             C 1361 454 1370 446 1379 446
             L 1379 1000
             L 1434 1000
             L 1434 730
             L 1439 730
             L 1439 1000
             L 1468 1000
             L 1468 730
             L 1473 730
             L 1473 1000
             L 1528 1000
             L 1528 446
             C 1537 446 1546 454 1548 465
             L 1557 555
             L 1579 555
             L 1569 450
             C 1563 412 1537 382 1499 370
             L 1473 356
             C 1485 348 1493 334 1493 318
             C 1493 296 1477 280 1450 280 Z"/>
  </g>

  <g fill="url(#silhouetteFade)" opacity="0.48">
    <ellipse cx="630" cy="330" rx="32" ry="38"/>
    <rect x="600" y="365" width="60" height="160" rx="16"/>
    <rect x="585" y="525" width="35" height="475"/>
    <rect x="640" y="525" width="35" height="475"/>
  </g>
  <g fill="url(#silhouetteFade)" opacity="0.48">
    <ellipse cx="970" cy="330" rx="32" ry="38"/>
    <rect x="940" y="365" width="60" height="160" rx="16"/>
    <rect x="925" y="525" width="35" height="475"/>
    <rect x="980" y="525" width="35" height="475"/>
  </g>

  <g fill="url(#silhouetteFade)" opacity="0.34">
    <ellipse cx="280" cy="370" rx="26" ry="32"/>
    <rect x="256" y="400" width="48" height="135" rx="14"/>
  </g>
  <g fill="url(#silhouetteFade)" opacity="0.34">
    <ellipse cx="1320" cy="370" rx="26" ry="32"/>
    <rect x="1296" y="400" width="48" height="135" rx="14"/>
  </g>

  <g stroke="#FFD700" stroke-opacity="0.12" fill="none" stroke-width="1">
    <path d="M 800 240 L 760 320 L 800 290 L 840 320 Z" fill="#FFD700" fill-opacity="0.06" stroke="none"/>
  </g>

  <rect width="1600" height="1000" fill="#0A0A0F" opacity="0.35"/>
  <rect y="700" width="1600" height="300" fill="url(#bgFade)" opacity="0.9"/>
</svg>
