<svg width="1600" height="1000" viewBox="0 0 1600 1000" xmlns="http://www.w3.org/2000/svg">
  <defs>
    <radialGradient id="coreGlow" cx="50%" cy="40%" r="55%">
      <stop offset="0%" stop-color="#3A7FFF" stop-opacity="0.55"/>
      <stop offset="35%" stop-color="#0057FF" stop-opacity="0.26"/>
      <stop offset="70%" stop-color="#0A0A0F" stop-opacity="0.05"/>
      <stop offset="100%" stop-color="#0A0A0F" stop-opacity="0"/>
    </radialGradient>
    <radialGradient id="goldGlow" cx="50%" cy="40%" r="30%">
      <stop offset="0%" stop-color="#FFD700" stop-opacity="0.32"/>
      <stop offset="100%" stop-color="#FFD700" stop-opacity="0"/>
    </radialGradient>
    <linearGradient id="silh" x1="0%" y1="0%" x2="0%" y2="100%">
      <stop offset="0%" stop-color="#17171F"/>
      <stop offset="100%" stop-color="#09090D"/>
    </linearGradient>
    <linearGradient id="bgFade" x1="0%" y1="0%" x2="0%" y2="100%">
      <stop offset="0%" stop-color="#0A0A0F"/>
      <stop offset="50%" stop-color="#0D0D16"/>
      <stop offset="100%" stop-color="#0A0A0F"/>
    </linearGradient>
    <filter id="bigBlur" x="-50%" y="-50%" width="200%" height="200%">
      <feGaussianBlur stdDeviation="24"/>
    </filter>
  </defs>

  <rect width="1600" height="1000" fill="url(#bgFade)"/>

  <g opacity="0.5">
    <line x1="0" y1="100" x2="1600" y2="100" stroke="#FFFFFF" stroke-opacity="0.02"/>
    <line x1="0" y1="200" x2="1600" y2="200" stroke="#FFFFFF" stroke-opacity="0.02"/>
    <line x1="0" y1="300" x2="1600" y2="300" stroke="#FFFFFF" stroke-opacity="0.02"/>
    <line x1="0" y1="400" x2="1600" y2="400" stroke="#FFFFFF" stroke-opacity="0.02"/>
    <line x1="0" y1="500" x2="1600" y2="500" stroke="#FFFFFF" stroke-opacity="0.02"/>
    <line x1="0" y1="600" x2="1600" y2="600" stroke="#FFFFFF" stroke-opacity="0.02"/>
    <line x1="0" y1="700" x2="1600" y2="700" stroke="#FFFFFF" stroke-opacity="0.02"/>
    <line x1="0" y1="800" x2="1600" y2="800" stroke="#FFFFFF" stroke-opacity="0.02"/>
    <line x1="200" y1="0" x2="200" y2="1000" stroke="#FFFFFF" stroke-opacity="0.02"/>
    <line x1="400" y1="0" x2="400" y2="1000" stroke="#FFFFFF" stroke-opacity="0.02"/>
    <line x1="600" y1="0" x2="600" y2="1000" stroke="#FFFFFF" stroke-opacity="0.02"/>
    <line x1="800" y1="0" x2="800" y2="1000" stroke="#FFFFFF" stroke-opacity="0.02"/>
    <line x1="1000" y1="0" x2="1000" y2="1000" stroke="#FFFFFF" stroke-opacity="0.02"/>
    <line x1="1200" y1="0" x2="1200" y2="1000" stroke="#FFFFFF" stroke-opacity="0.02"/>
    <line x1="1400" y1="0" x2="1400" y2="1000" stroke="#FFFFFF" stroke-opacity="0.02"/>
  </g>

  <circle cx="800" cy="400" r="430" fill="url(#coreGlow)"/>
  <circle cx="800" cy="380" r="170" fill="url(#goldGlow)"/>

  <g stroke="#3A7FFF" stroke-opacity="0.16" stroke-width="1.5">
    <line x1="800" y1="380" x2="60" y2="40"/>
    <line x1="800" y1="380" x2="340" y2="0"/>
    <line x1="800" y1="380" x2="620" y2="0"/>
    <line x1="800" y1="380" x2="980" y2="0"/>
    <line x1="800" y1="380" x2="1260" y2="0"/>
    <line x1="800" y1="380" x2="1540" y2="40"/>
  </g>

  <g filter="url(#bigBlur)" opacity="0.32">
    <ellipse cx="800" cy="960" rx="750" ry="80" fill="#0057FF"/>
  </g>

  <g fill="url(#silh)">
    <ellipse cx="800" cy="178" rx="52" ry="58"/>
    <path d="M 748 168 L 718 140 L 738 200 Z"/>
    <path d="M 852 168 L 882 140 L 862 200 Z"/>
    <path d="M 712 270
             C 712 232 752 215 800 215
             C 848 215 888 232 888 270
             L 900 420
             L 858 420
             L 845 300
             L 845 460
             L 935 980 L 855 980
             L 800 640
             L 745 980 L 665 980
             L 755 460
             L 755 300
             L 742 420
             L 700 420 Z"/>
    <path d="M 800 230
             C 700 246 600 320 555 460
             L 470 700 L 540 730 L 630 500
             C 645 460 670 430 712 412 Z"/>
    <path d="M 800 230
             C 900 246 1000 320 1045 460
             L 1130 700 L 1060 730 L 970 500
             C 955 460 930 430 888 412 Z"/>
    <path d="M 800 232
             C 740 320 700 460 700 620
             C 700 760 740 880 800 940
             C 860 880 900 760 900 620
             C 900 460 860 320 800 232 Z"
          opacity="0.5"/>
  </g>

  <g fill="url(#silh)" opacity="0.92">
    <ellipse cx="395" cy="250" rx="40" ry="44"/>
    <path d="M 360 232 L 318 210 L 345 256 Z"/>
    <path d="M 430 232 L 472 210 L 445 256 Z"/>
    <path d="M 358 330
             C 358 300 374 286 395 286
             C 416 286 432 300 432 330
             L 440 460
             L 406 460
             L 400 360
             L 400 1000
             L 364 1000
             L 358 620
             L 352 1000
             L 316 1000
             L 326 360
             L 320 460
             L 286 460 Z"/>
    <path d="M 395 286
             C 350 296 312 330 296 380
             L 258 500 L 296 516 L 336 410
             C 344 392 356 378 370 370 Z"/>
    <path d="M 395 286
             C 440 296 478 330 494 380
             L 532 500 L 494 516 L 454 410
             C 446 392 434 378 420 370 Z"/>
  </g>

  <g fill="url(#silh)" opacity="0.92">
    <ellipse cx="1205" cy="250" rx="40" ry="44"/>
    <rect x="1178" y="220" width="54" height="16" rx="3"/>
    <path d="M 1168 330
             C 1168 300 1184 286 1205 286
             C 1226 286 1242 300 1242 330
             L 1250 460
             L 1216 460
             L 1210 360
             L 1210 1000
             L 1174 1000
             L 1168 620
             L 1162 1000
             L 1126 1000
             L 1136 360
             L 1130 460
             L 1096 460 Z"/>
    <path d="M 1205 286
             C 1160 296 1122 330 1106 380
             L 1068 500 L 1106 516 L 1146 410
             C 1154 392 1166 378 1180 370 Z"/>
    <path d="M 1205 286
             C 1250 296 1288 330 1304 380
             L 1342 500 L 1304 516 L 1264 410
             C 1256 392 1244 378 1230 370 Z"/>
    <circle cx="1205" cy="500" r="6"/>
    <line x1="1205" y1="430" x2="1205" y2="610" stroke="url(#silh)" stroke-width="10"/>
    <path d="M 1205 600 L 1185 650 L 1225 650 Z"/>
  </g>

  <g fill="url(#silh)" opacity="0.78">
    <ellipse cx="190" cy="330" rx="34" ry="38"/>
    <path d="M 165 310 C 155 296 140 290 124 292 L 140 320 Z"/>
    <path d="M 215 310 C 225 296 240 290 256 292 L 240 320 Z"/>
    <path d="M 158 400
             C 158 374 172 362 190 362
             C 208 362 222 374 222 400
             L 228 510
             L 200 510
             L 196 430
             L 196 1000
             L 166 1000
             L 158 700
             L 150 1000
             L 120 1000
             L 130 430
             L 126 510
             L 98 510 Z"/>
  </g>

  <g fill="url(#silh)" opacity="0.78">
    <ellipse cx="1410" cy="330" rx="34" ry="38"/>
    <path d="M 1380 314 L 1352 300 L 1366 332 Z"/>
    <path d="M 1440 314 L 1468 300 L 1454 332 Z"/>
    <path d="M 1378 400
             C 1378 374 1392 362 1410 362
             C 1428 362 1442 374 1442 400
             L 1448 510
             L 1420 510
             L 1416 430
             L 1416 1000
             L 1386 1000
             L 1378 700
             L 1370 1000
             L 1340 1000
             L 1350 430
             L 1346 510
             L 1318 510 Z"/>
    <line x1="1410" y1="440" x2="1380" y2="560" stroke="url(#silh)" stroke-width="9"/>
    <path d="M 1376 552 L 1356 540 L 1366 580 Z"/>
  </g>

  <g fill="url(#silh)" opacity="0.58">
    <ellipse cx="555" cy="170" rx="30" ry="34"/>
    <path d="M 528 158 C 518 146 502 142 488 146 L 506 172 Z"/>
    <path d="M 582 158 C 592 146 608 142 622 146 L 604 172 Z"/>
    <path d="M 525 232
             C 525 210 538 200 555 200
             C 572 200 585 210 585 232
             L 590 330
             L 565 330
             L 560 260
             L 560 1000
             L 535 1000
             L 525 600
             L 518 1000
             L 492 1000
             L 502 260
             L 498 330
             L 472 330 Z"/>
  </g>

  <g fill="url(#silh)" opacity="0.58">
    <ellipse cx="1045" cy="170" rx="30" ry="34"/>
    <path d="M 1018 158 C 1008 146 992 142 978 146 L 996 172 Z"/>
    <path d="M 1072 158 C 1082 146 1098 142 1112 146 L 1094 172 Z"/>
    <path d="M 1015 232
             C 1015 210 1028 200 1045 200
             C 1062 200 1075 210 1075 232
             L 1080 330
             L 1055 330
             L 1050 260
             L 1050 1000
             L 1025 1000
             L 1015 600
             L 1008 1000
             L 982 1000
             L 992 260
             L 988 330
             L 962 330 Z"/>
  </g>

  <g fill="#FFD700" opacity="0.05">
    <path d="M 800 250 L 770 320 L 800 295 L 830 320 Z"/>
  </g>

  <rect width="1600" height="1000" fill="#0A0A0F" opacity="0.36"/>
  <rect y="700" width="1600" height="300" fill="url(#bgFade)" opacity="0.92"/>
</svg>
